<?xml version="1.0" encoding="UTF-8" standalone="no"?>
<svg
   viewBox="0 0 16 16"
   version="1.1"
   xmlns="http://www.w3.org/2000/svg">
   <style>
      path {
         fill: #7e7c7c;
      }

      @media (prefers-color-scheme: dark) {
         path {
            fill: #B1AFAF;
         }
      }
   </style>
   <path d="M 9.6230469,0 C 8.5944819,-0.00457981 7.4020223,0.19087565 6.0078125,0.56445312 0.43097314,2.0587627 -0.92985676,4.4153481 0.56445312,9.9921875 2.0587628,15.569026 4.4153482,16.929857 9.9921875,15.435547 15.569026,13.941237 16.929857,11.584652 15.435547,6.0078125 14.314815,1.8251831 12.708742,0.01373943 9.6230469,0 Z M 8.2207031,1.8574219 c 3.3358399,0 5.7107749,2.7560853 5.7109379,6.09375 6.4e-5,1.4754656 -0.57829,3.1439511 -1.027344,3.8496091 H 9.3769531 L 9.3125,11.224609 C 8.7351432,11.673664 8.0941945,11.865127 7.7734375,11.865234 4.8866556,11.866202 4.8867188,8.9152474 4.8867188,8.3378906 c 0,-2.1169753 1.2172705,-3.7752262 2.9082031,-3.7832031 C 8.4134,4.5517775 8.7345416,4.6798518 9.1835938,5.1289062 V 4.6796875 h 1.6035152 v 5.8378905 h 1.091797 c 0.192455,-0.513207 0.449219,-1.2189371 0.449219,-2.501953 0,-3.2075392 -1.990447,-4.6816406 -4.1074219,-4.6816406 -3.3999891,0 -4.4902343,3.0781756 -4.4902343,4.7460937 0,2.6943319 1.6041928,4.9394529 4.234375,4.9394529 1.2517025,0 1.5389511,-0.128164 2.7578122,-0.384765 v 1.539062 c -0.8339565,0.192452 -1.7310977,0.257813 -2.6933591,0.257813 -3.7848936,0 -5.9023438,-3.07927 -5.9023438,-6.2226566 0,-3.5282914 2.4559445,-6.3515625 6.09375,-6.3515625 z M 8.09375,5.8984375 c -1.1547137,0 -1.4765625,1.1561368 -1.4765625,2.375 0,1.5396183 0.3853948,2.2441405 1.3476563,2.2441405 0.5132066,0 0.8979975,-0.31957 1.21875,-0.5761718 V 6.2832031 C 8.8628413,5.9624485 8.4786545,5.8984375 8.09375,5.8984375 Z" />
</svg>
