<?xml version="1.0" encoding="UTF-8" standalone="no"?>
<!-- Created with Inkscape (http://www.inkscape.org/) -->

<svg
   version="1.1"
   id="svg228"
   width="850"
   height="310"
   viewBox="0 0 850 310"
   xml:space="preserve"
   sodipodi:docname="logo.svg"
   inkscape:version="1.2-beta (1b65182, 2022-04-05)"
   xmlns:inkscape="http://www.inkscape.org/namespaces/inkscape"
   xmlns:sodipodi="http://sodipodi.sourceforge.net/DTD/sodipodi-0.dtd"
   xmlns="http://www.w3.org/2000/svg"
   xmlns:svg="http://www.w3.org/2000/svg"><sodipodi:namedview
     id="namedview8"
     pagecolor="#ffffff"
     bordercolor="#666666"
     borderopacity="1.0"
     inkscape:pageshadow="2"
     inkscape:pageopacity="0.0"
     inkscape:pagecheckerboard="0"
     inkscape:deskcolor="#d1d1d1"
     showgrid="true"
     inkscape:zoom="0.56651732"
     inkscape:cx="486.30464"
     inkscape:cy="-135.91818"
     inkscape:window-width="1920"
     inkscape:window-height="1043"
     inkscape:window-x="0"
     inkscape:window-y="0"
     inkscape:window-maximized="1"
     inkscape:current-layer="svg228"
     showguides="true"><inkscape:grid
       type="xygrid"
       id="grid345"
       empspacing="10"
       originx="0"
       originy="0" /><sodipodi:guide
       position="40,240"
       orientation="0,-1"
       id="guide3235" /><sodipodi:guide
       position="40,270"
       orientation="1,0"
       id="guide3237" /><sodipodi:guide
       position="40,70"
       orientation="0,-1"
       id="guide3239" /><sodipodi:guide
       position="810,270"
       orientation="1,0"
       id="guide3241" /><sodipodi:guide
       position="40,0"
       orientation="0,-1"
       id="guide3243" /></sodipodi:namedview><defs
     id="defs232" /><g
     id="g3233"
     transform="translate(0,8)"><path
       id="path643"
       style="opacity:1;fill:#7e7c7c;fill-opacity:1;fill-rule:evenodd;stroke-width:1.88976;stroke-linecap:round;stroke-linejoin:round;stroke-miterlimit:32;paint-order:stroke fill markers"
       d="m 40,62 h 43 v 33 l -43,24 z m 397,138 c -9,7 -18.99998,9.98333 -24.00003,9.985 C 368,210 368,164 368,155 368,122 387.00025,96.169834 413.359,96.045483 423,96 428,98 434.99997,105 v -7 h 25 v 91 h 17 C 480,181 484,170 484,150 c 0,-50 -31,-73 -64,-73 -53,0 -70,48 -70,74 0,42 25,77 66,77 19.5119,0 24,-2 42.99997,-6 v 24 C 446,249 432,250 417,250 c -59,0 -92,-48 -92,-97 0,-55 38.29286,-99 95,-99 52,0 88.99742,42.971561 88.99996,95 C 509.00108,172 500,198 493,209 h -55 z m -42,-46 c 0,24 6,35 21,35 8,0 14.00003,-5 19,-9 v -57 c -5,-5 -11,-6 -17,-6 -18,0 -23,18 -23,37 z m 137.45616,-35.31056 c 23.29371,86.93333 2.08051,123.67568 -84.85282,146.96939 -86.93332,23.29371 -123.67567,2.08051 -146.96938,-84.85281 C 277.34025,93.872696 298.55345,57.13035 385.48678,33.836636 472.4201,10.542922 509.16245,31.756125 532.45616,118.68944 Z" /><path
       id="path645"
       style="opacity:1;fill:#0e509d;fill-opacity:1;fill-rule:evenodd;stroke-width:1.88976;stroke-linecap:round;stroke-linejoin:round;stroke-miterlimit:32;paint-order:stroke fill markers"
       d="M 40,143 83,119 V 232 H 40 Z m 132,-5 c 5,5 5,11 5,16 l -1e-5,78 h 30 L 207,148 c 12,-12 31.8917,-21.1083 43,-10 5,5 5,11 5,16 l -2e-5,78 h 30 L 285,157 c 0,-38 -18.02549,-43.93288 -26,-47 -13,-5 -38,-4 -56.00001,20 C 195.41812,113.97337 182,108 166,108 c -15.75347,0 -30.51897,8.41206 -40.00001,20 L 124,111 H 98.999993 V 232 H 128.99999 L 129,148 c 12,-12 31.8917,-21.1083 43,-10 z m 470,107 c -4.68197,17.55738 -21,24 -42,24 -17,0 -26,-2 -36.00004,-5 l 4e-5,23 c 15,6 31,6 41.99996,6 31.00004,0 65.50006,-13 65.50006,-56 0,0 1e-5,-126 -4e-5,-126 H 644.99995 L 644,125 c -8,-9 -17,-17 -34,-17 -29,0 -53,25 -53,62 0,46 24,65 50,65 16,0 27,-6 35,-13 m -27,-90 c 10,0 19,5 27,13 v 54 c -4,4 -13,12 -27,12 -16,0 -27,-11 -27,-39 0,-21 7,-40 27,-40 z m 188.99994,73 C 793,208 780,211 766,211 c -27,0 -38,-17 -38,-31 h 79 c 3,-19 0,-44 -16,-60 -9.08759,-8.3167 -22.54981,-12.09 -35.17395,-12.09 -17,0 -28.31611,3.61776 -40.82605,17.09 -13,14 -17.19843,29.99915 -17.159,43.91 C 698,225 732,235 761,235 c 23.10004,0 35,-4 43,-7 l -6e-5,-23 M 730,157 c 5e-5,-15 12,-26 25,-26 11.07144,0 22,8 22,26" /></g></svg>
